<?xml version="1.0" standalone="no"?>
<!DOCTYPE svg PUBLIC "-//W3C//DTD SVG 20010904//EN"
 "http://www.w3.org/TR/2001/REC-SVG-20010904/DTD/svg10.dtd">
<svg version="1.0" xmlns="http://www.w3.org/2000/svg"
 width="409.000000pt" height="409.000000pt" viewBox="0 0 409.000000 409.000000"
 preserveAspectRatio="xMidYMid meet">
<metadata>
Created by potrace 1.14, written by Peter Selinger 2001-2017
</metadata>
<g transform="translate(0.000000,409.000000) scale(0.100000,-0.100000)"
fill="#000000" stroke="none">
<path d="M0 2045 l0 -2045 2045 0 2045 0 0 2045 0 2045 -2045 0 -2045 0 0
-2045z m2248 446 l52 -23 0 -59 c0 -33 -2 -59 -5 -59 -2 0 -21 11 -41 25 -48
32 -95 45 -169 45 -152 -1 -226 -98 -227 -295 0 -165 59 -261 176 -285 78 -16
174 6 244 56 l22 16 0 -61 0 -62 -47 -22 c-67 -29 -221 -36 -292 -12 -66 22
-143 91 -175 159 -33 71 -50 173 -42 260 16 182 89 286 231 333 63 20 208 12
273 -16z m780 -1 l52 -22 0 -59 c0 -33 -2 -59 -5 -59 -3 0 -22 11 -43 24 -58
38 -107 49 -189 44 -62 -4 -79 -9 -111 -34 -20 -17 -50 -57 -67 -89 -27 -54
-30 -69 -30 -160 0 -205 72 -298 230 -298 71 0 160 28 186 59 22 27 30 13 27
-48 l-3 -63 -65 -22 c-85 -29 -209 -31 -280 -4 -145 55 -220 203 -207 411 9
143 61 245 158 306 57 36 97 44 199 40 72 -2 108 -9 148 -26z m-1532 -360 c79
-206 144 -376 144 -378 0 -2 -25 -2 -56 0 l-56 3 -37 95 -37 95 -176 3 -177 2
-38 -100 -38 -100 -52 0 c-29 0 -53 2 -53 4 0 2 61 163 136 357 75 195 140
364 145 377 8 21 14 23 80 20 l71 -3 144 -375z"/>
<path d="M1207 2223 c-38 -96 -66 -177 -64 -179 2 -3 65 -3 139 -2 l134 3 -66
172 c-36 95 -68 175 -71 177 -2 3 -35 -74 -72 -171z"/>
</g>
</svg>
